<?xml version="1.0" encoding="utf-8"?>
<!-- Generator: Adobe Illustrator 21.0.2, SVG Export Plug-In . SVG Version: 6.00 Build 0)  -->
<svg version="1.1" id="Layer_1" xmlns="http://www.w3.org/2000/svg" xmlns:xlink="http://www.w3.org/1999/xlink" x="0px" y="0px"
	 viewBox="0 0 192 192" style="enable-background:new 0 0 192 192;" xml:space="preserve">
<style type="text/css">
	.st0{fill:#86BBD8;}
	.st1{fill:#2F4858;}
	.st2{fill:#EB5160;}
	.st3{fill:#00A878;}
	.st4{fill:none;stroke:#EB5160;stroke-width:23;stroke-linecap:round;stroke-miterlimit:10;}
	.st5{fill:#5C7BB4;}
	.st6{opacity:0.4;fill:#5C7BB4;}
	.st7{fill:none;stroke:#EB5160;stroke-width:11;stroke-miterlimit:10;}
	.st8{opacity:0.5;fill:#EB5160;}
	.st9{fill:none;stroke:#00A878;stroke-width:3;stroke-miterlimit:10;}
	.st10{opacity:0.5;fill:#00A878;}
	.st11{opacity:0.1;}
	.st12{opacity:0.2;fill:none;stroke:#141414;stroke-width:23;stroke-linecap:round;stroke-miterlimit:10;}
	.st13{opacity:0.2;fill:none;stroke:#212121;stroke-width:23;stroke-linecap:round;stroke-miterlimit:10;}
	.st14{opacity:0.5;}
	.st15{opacity:0.4;fill:none;stroke:#5C7BB4;stroke-miterlimit:10;}
	.st16{fill:none;stroke:#F9CC4E;stroke-width:3;stroke-miterlimit:10;}
	.st17{fill:none;stroke:#F9CC4E;stroke-miterlimit:10;}
	.st18{opacity:5.000000e-02;fill:none;stroke:#000000;stroke-miterlimit:10;}
	.st19{fill:none;stroke:#00A878;stroke-miterlimit:10;}
	.st20{opacity:0.4;fill:none;stroke:#5C7BB4;stroke-width:3;stroke-miterlimit:10;}
	.st21{fill:#FFFFFF;}
	.st22{fill:none;stroke:#EB5160;stroke-width:6;stroke-linecap:round;stroke-miterlimit:10;}
	.st23{opacity:0.2;fill:none;stroke:#141414;stroke-width:6;stroke-linecap:round;stroke-miterlimit:10;}
	.st24{opacity:0.2;fill:none;stroke:#212121;stroke-width:6;stroke-linecap:round;stroke-miterlimit:10;}
	.st25{fill:none;stroke:#F9CC4E;stroke-width:2;stroke-miterlimit:10;}
	.st26{fill:none;stroke:#00A878;stroke-width:2;stroke-miterlimit:10;}
	.st27{fill:none;stroke:#EB5160;stroke-width:5;stroke-linecap:round;stroke-miterlimit:10;}
	.st28{opacity:0.2;fill:none;stroke:#141414;stroke-width:5;stroke-linecap:round;stroke-miterlimit:10;}
	.st29{opacity:0.2;fill:none;stroke:#212121;stroke-width:5;stroke-linecap:round;stroke-miterlimit:10;}
	.st30{fill:none;stroke:#EB5160;stroke-width:3;stroke-linecap:round;stroke-miterlimit:10;}
	.st31{opacity:0.2;fill:none;stroke:#141414;stroke-width:3;stroke-linecap:round;stroke-miterlimit:10;}
	.st32{opacity:0.2;fill:none;stroke:#212121;stroke-width:3;stroke-linecap:round;stroke-miterlimit:10;}
	.st33{fill:none;stroke:#F9CC4E;stroke-width:0.5;stroke-miterlimit:10;}
	.st34{fill:none;stroke:#00A878;stroke-width:0.5;stroke-miterlimit:10;}
	.st35{fill:none;stroke:#EB5160;stroke-width:2;stroke-linecap:round;stroke-miterlimit:10;}
	.st36{opacity:0.2;fill:none;stroke:#141414;stroke-width:2;stroke-linecap:round;stroke-miterlimit:10;}
	.st37{opacity:0.2;fill:none;stroke:#212121;stroke-width:2;stroke-linecap:round;stroke-miterlimit:10;}
	.st38{fill:none;stroke:#EB5160;stroke-linecap:round;stroke-miterlimit:10;}
	.st39{opacity:0.2;fill:none;stroke:#141414;stroke-linecap:round;stroke-miterlimit:10;}
	.st40{opacity:0.2;fill:none;stroke:#212121;stroke-linecap:round;stroke-miterlimit:10;}
</style>
<g>
	
		<image style="overflow:visible;opacity:0.58;" width="187" height="186" xlink:href="2EC8234A0C2816BA.png"  transform="matrix(1 0 0 1 3 1)">
	</image>
	<g>
		<path class="st21" d="M170.3,178H22.5c-5.5,0-10-4.5-10-10V20.2c0-5.5,4.5-10,10-10h147.8c5.5,0,10,4.5,10,10V168
			C180.3,173.5,175.8,178,170.3,178z"/>
	</g>
</g>
<path class="st22" d="M135.9,58.7c8-3.2,13.5-4.1,15-2c1.4,2-0.7,6.3-5.5,12c-0.9,1.1-2,2.3-3.1,3.5c-8.8,9.5-23.5,21.9-40.9,34.3
	c-17.3,12.2-33.7,21.9-45.5,27.1c-1.5,0.7-2.9,1.2-4.2,1.7c-7.3,2.8-12.2,3.5-13.6,1.4c-1.5-2.1,1.1-7,6.7-13.4
	c1.1-1.3,2.4-2.7,3.8-4.1"/>
<path class="st22" d="M45.5,61.1c-8.6-0.8-14.1-0.1-14.9,2.4c-0.8,2.3,2.5,5.8,8.7,9.9c1.2,0.8,2.5,1.6,4,2.5
	c11.2,6.6,28.7,14.4,49,21.3c20,6.8,38.5,11.4,51.3,13c1.6,0.2,3.1,0.4,4.5,0.5c7.8,0.6,12.7-0.1,13.5-2.5c0.8-2.5-3-6.4-10.3-10.9
	c-1.5-0.9-3.1-1.9-4.8-2.8"/>
<g>
	<circle class="st5" cx="91.3" cy="92.1" r="55.3"/>
	<path class="st1" d="M139.9,118.5c-9.4,17.2-27.6,28.9-48.6,28.9c-30.5,0-55.3-24.7-55.3-55.3c0-13.1,4.6-25.1,12.2-34.6
		c-4.3,7.8-6.7,16.8-6.7,26.4c0,30.5,24.7,55.3,55.3,55.3C114.2,139.1,129.8,131.1,139.9,118.5z"/>
	<circle class="st6" cx="96.4" cy="91.1" r="55.3"/>
</g>
<path class="st11" d="M146.2,99.2c0-0.5,0-1.1,0-1.6c0-30.5-24.7-55.3-55.3-55.3c-28.2,0-51.4,21.1-54.8,48.3
	C37,60.8,61.4,36.9,91.3,36.9c30.5,0,55.3,24.7,55.3,55.3C146.6,94.6,146.4,96.9,146.2,99.2z"/>
<g>
	<path class="st23" d="M39,74c1.2,0.8,2.6,1.7,4.1,2.6c11.5,6.9,29.6,14.9,50.5,22.1c20.7,7.1,39.7,11.8,52.9,13.6"/>
	<path class="st22" d="M38.2,72.6c1.3,0.8,2.7,1.7,4.2,2.6C54.2,82,72.7,90.1,94,97.3c21.1,7.1,40.6,11.8,54.1,13.6"/>
	<path class="st24" d="M54.3,135.9c12-5.1,28.7-14.7,46.2-27c17.7-12.4,32.6-25,41.6-34.6c1.2-1.2,2.2-2.4,3.2-3.5"/>
	<path class="st22" d="M51.7,135.5c12.5-5.5,29.8-15.6,48-28.4c18.4-12.9,33.9-25.9,43.2-35.8c1.2-1.3,2.3-2.5,3.3-3.6"/>
</g>
<g class="st14">
	<g>
		<path class="st1" d="M36.2,60.5c-2.4,0.4-6.5,1.1-6.4,4.3c0.1,1.2,1,2.3,1.7,3.2c1,1.3,2.3,2.4,3.6,3.4c1.6,1.1,3.1-1.5,1.5-2.6
			c-1.1-0.8-3.1-2.3-3.6-3.7c-0.2-0.7,0.2-0.8,0.9-1.1c1-0.3,2-0.5,3-0.7C38.9,63.1,38.1,60.2,36.2,60.5L36.2,60.5z"/>
	</g>
</g>
<g class="st14">
	<g>
		<path class="st1" d="M155.4,111.1c2.5,0,7.1,0.6,8.2-2.4c1.2-3.1-2.3-5.8-4.2-7.7c-1.3-1.4-3.5,0.7-2.1,2.1c0.7,0.7,1.3,1.4,2,2.1
			c0.5,0.5,1.7,1.5,1.4,2.2c-0.4,1.1-4.3,0.6-5.4,0.6C153.4,108.1,153.4,111.1,155.4,111.1L155.4,111.1z"/>
	</g>
</g>
<g class="st14">
	<g>
		<path class="st1" d="M157.2,102.4c1.9,0,1.9-3,0-3C155.3,99.4,155.3,102.4,157.2,102.4L157.2,102.4z"/>
	</g>
</g>
<g class="st14">
	<g>
		<path class="st1" d="M38.2,63.4c1.9,0,1.9-3,0-3C36.3,60.4,36.3,63.4,38.2,63.4L38.2,63.4z"/>
	</g>
</g>
<circle class="st15" cx="137.6" cy="39.5" r="3.8"/>
<circle class="st25" cx="108.3" cy="36.7" r="5.6"/>
<circle class="st25" cx="33.8" cy="112.5" r="2.9"/>
<circle class="st26" cx="105.7" cy="154" r="5.6"/>
<circle class="st17" cx="137.6" cy="129.6" r="2.7"/>
<circle class="st17" cx="58.2" cy="42.3" r="2.7"/>
<circle class="st18" cx="60" cy="65.9" r="1.8"/>
<circle class="st19" cx="67.4" cy="151.2" r="1.6"/>
<circle class="st19" cx="81.2" cy="30.2" r="1.6"/>
<circle class="st20" cx="139.1" cy="53.6" r="2.9"/>
<circle class="st18" cx="87.1" cy="87" r="1.8"/>
<circle class="st18" cx="103.3" cy="113.6" r="1.8"/>
<circle class="st18" cx="81.9" cy="136" r="1.8"/>
<circle class="st18" cx="102" cy="63.9" r="3"/>
<circle class="st18" cx="143.3" cy="87.1" r="3"/>
<circle class="st18" cx="59.9" cy="103.8" r="3"/>
<circle class="st18" cx="122" cy="125.7" r="3"/>
</svg>
